<?xml version="1.0" standalone="no"?><!DOCTYPE svg PUBLIC "-//W3C//DTD SVG 1.1//EN" "http://www.w3.org/Graphics/SVG/1.1/DTD/svg11.dtd"><svg t="1657533337517" class="icon" viewBox="0 0 1024 1024" version="1.1" xmlns="http://www.w3.org/2000/svg" p-id="2319" width="128" height="128" xmlns:xlink="http://www.w3.org/1999/xlink"><defs><style type="text/css"></style></defs><path d="M913.6 600.21333333H802.88c0-160.64-130.66666667-291.2-291.2-291.2s-291.2 130.66666667-291.2 291.2H109.76c0-198.18666667 144.21333333-363.30666667 333.12-396.05333333v-11.62666667c0-36.58666667 29.86666667-66.45333333 66.45333333-66.45333333h4.69333334c36.58666667 0 66.56 29.86666667 66.56 66.45333333v11.73333334C769.49333333 236.8 913.6 402.02666667 913.6 600.21333333z" fill="#00EFEF" p-id="2320"></path><path d="M834.88 853.01333333h-646.4c-30.18666667 0-54.93333333-24.74666667-54.93333333-54.93333333s24.74666667-54.93333333 54.93333333-54.93333333h646.4c30.18666667 0 54.93333333 24.74666667 54.93333333 54.93333333 0 30.29333333-24.74666667 54.93333333-54.93333333 54.93333333zM932.16 703.46666667H91.2c-31.57333333 0-57.38666667-25.81333333-57.38666667-57.38666667 0-31.57333333 25.81333333-57.38666667 57.38666667-57.38666667H932.26666667c31.57333333 0 57.38666667 25.81333333 57.38666666 57.38666667-0.10666667 31.57333333-25.92 57.38666667-57.49333333 57.38666667z" fill="#52A9FF" p-id="2321"></path></svg>